<svg data-v-423bf9ae="" xmlns="http://www.w3.org/2000/svg" viewBox="0 0 100 110" class="iconLeft">
    <rect x="0" y="0" width="100" height="110" rx="10" fill="#f0f4ff"  stroke-width="2"/>
    <g transform="scale(2) translate(1,3)">
        <path fill="#3371FF" d="M37,45H11c-1.657,0-3-1.343-3-3V6c0-1.657,1.343-3,3-3h19l10,10v29C40,43.657,38.657,45,37,45z"/>
        <path fill="#bbdefb" d="M40 13L30 13 30 3z"/>
        <path fill="#1565c0" d="M30 13L40 23 40 13z"/>
        <path fill="#e3f2fd" d="M15 23H33V25H15zM15 27H33V29H15zM15 31H33V33H15zM15 35H25V37H15z"/>
    </g>
</svg>