<svg data-v-423bf9ae="" xmlns="http://www.w3.org/2000/svg" viewBox="0 0 500 120" class="iconLeft">
    <rect x="0" y="0" width="100" height="110" rx="10" fill="#f0f4ff"  stroke-width="2"/>
    <g transform="scale(2) translate(1,3)">
        <path fill="#3371FF" d="M37,45H11c-1.657,0-3-1.343-3-3V6c0-1.657,1.343-3,3-3h19l10,10v29C40,43.657,38.657,45,37,45z"/>
        <path fill="#bbdefb" d="M40 13L30 13 30 3z"/>
        <path fill="#1565c0" d="M30 13L40 23 40 13z"/>
        <path fill="#e3f2fd" d="M15 23H33V25H15zM15 27H33V29H15zM15 31H33V33H15zM15 35H25V37H15z"/>
    </g>
    <g fill="#ffffff" transform="matrix(6.84225874640956,0,0,7.84225874640956,115.92630000606874,-25.917972378637856)">
      <path d="M3.35 8.01L3.35 12.88Q3.50 12.91 3.72 12.93Q3.95 12.95 4.14 12.95L4.14 12.95Q4.62 12.95 5.02 12.81Q5.42 12.67 5.71 12.38Q5.99 12.08 6.15 11.61Q6.31 11.14 6.31 10.49L6.31 10.49Q6.31 9.23 5.73 8.59Q5.14 7.95 4.16 7.95L4.16 7.95Q3.96 7.95 3.76 7.97Q3.56 7.98 3.35 8.01L3.35 8.01ZM4.13 14.92L4.13 14.92Q3.89 14.92 3.58 14.91Q3.28 14.90 2.95 14.85Q2.62 14.81 2.29 14.75Q1.96 14.69 1.68 14.57L1.68 14.57Q0.91 14.28 0.91 13.55L0.91 13.55L0.91 7.01Q0.91 6.72 1.07 6.56Q1.23 6.40 1.51 6.30L1.51 6.30Q2.11 6.10 2.79 6.04Q3.46 5.98 3.99 5.98L3.99 5.98Q5.08 5.98 5.97 6.24Q6.86 6.51 7.50 7.06Q8.13 7.62 8.48 8.46Q8.83 9.30 8.83 10.44L8.83 10.44Q8.83 11.56 8.50 12.40Q8.16 13.23 7.54 13.80Q6.92 14.36 6.05 14.64Q5.18 14.92 4.13 14.92ZM17.09 11.30L17.09 11.30Q17.09 12.17 16.83 12.85Q16.56 13.52 16.08 13.99Q15.60 14.45 14.92 14.69Q14.25 14.92 13.43 14.92L13.43 14.92Q12.60 14.92 11.93 14.67Q11.26 14.42 10.77 13.95Q10.29 13.48 10.02 12.81Q9.76 12.14 9.76 11.30L9.76 11.30Q9.76 10.47 10.02 9.80Q10.29 9.13 10.77 8.66Q11.26 8.19 11.93 7.94Q12.60 7.69 13.43 7.69L13.43 7.69Q14.25 7.69 14.92 7.95Q15.60 8.20 16.08 8.67Q16.56 9.14 16.83 9.81Q17.09 10.49 17.09 11.30ZM12.19 11.30L12.19 11.30Q12.19 12.15 12.52 12.61Q12.85 13.06 13.44 13.06L13.44 13.06Q14.03 13.06 14.34 12.60Q14.66 12.14 14.66 11.30L14.66 11.30Q14.66 10.46 14.34 10.00Q14.01 9.55 13.43 9.55L13.43 9.55Q12.84 9.55 12.52 10.00Q12.19 10.46 12.19 11.30ZM22.09 9.56L22.09 9.56Q21.74 9.56 21.43 9.67Q21.11 9.79 20.88 10.00Q20.65 10.22 20.51 10.54Q20.37 10.86 20.37 11.30L20.37 11.30Q20.37 12.17 20.87 12.60Q21.36 13.03 22.08 13.03L22.08 13.03Q22.50 13.03 22.81 12.94Q23.11 12.84 23.35 12.73L23.35 12.73Q23.63 12.92 23.77 13.15Q23.91 13.38 23.91 13.71L23.91 13.71Q23.91 14.28 23.37 14.60Q22.82 14.91 21.85 14.91L21.85 14.91Q20.97 14.91 20.26 14.65Q19.54 14.39 19.03 13.92Q18.52 13.45 18.24 12.80Q17.96 12.14 17.96 11.34L17.96 11.34Q17.96 10.42 18.26 9.72Q18.56 9.03 19.08 8.58Q19.60 8.13 20.28 7.91Q20.96 7.69 21.71 7.69L21.71 7.69Q22.72 7.69 23.27 8.05Q23.81 8.41 23.81 8.99L23.81 8.99Q23.81 9.25 23.69 9.49Q23.56 9.72 23.39 9.88L23.39 9.88Q23.16 9.77 22.82 9.67Q22.48 9.56 22.09 9.56ZM30.84 12.67L30.84 12.67Q30.84 13.73 30.04 14.34Q29.25 14.94 27.69 14.94L27.69 14.94Q27.10 14.94 26.60 14.85Q26.10 14.77 25.74 14.60Q25.38 14.42 25.18 14.15Q24.98 13.89 24.98 13.52L24.98 13.52Q24.98 13.19 25.12 12.96Q25.26 12.73 25.45 12.57L25.45 12.57Q25.86 12.80 26.38 12.97Q26.91 13.15 27.59 13.15L27.59 13.15Q28.03 13.15 28.26 13.02Q28.49 12.89 28.49 12.68L28.49 12.68Q28.49 12.49 28.32 12.38Q28.15 12.26 27.76 12.19L27.76 12.19L27.34 12.11Q26.12 11.87 25.53 11.36Q24.93 10.85 24.93 9.90L24.93 9.90Q24.93 9.38 25.16 8.96Q25.38 8.54 25.79 8.26Q26.19 7.98 26.76 7.83Q27.33 7.67 28.01 7.67L28.01 7.67Q28.53 7.67 28.99 7.75Q29.44 7.83 29.78 7.98Q30.11 8.13 30.31 8.38Q30.51 8.62 30.51 8.96L30.51 8.96Q30.51 9.28 30.39 9.51Q30.27 9.74 30.09 9.90L30.09 9.90Q29.97 9.83 29.75 9.75Q29.53 9.67 29.26 9.61Q28.99 9.55 28.72 9.51Q28.45 9.46 28.22 9.46L28.22 9.46Q27.76 9.46 27.51 9.57Q27.26 9.67 27.26 9.90L27.26 9.90Q27.26 10.05 27.40 10.15Q27.54 10.25 27.93 10.33L27.93 10.33L28.36 10.43Q29.71 10.74 30.27 11.28Q30.84 11.82 30.84 12.67ZM37.23 14.74L33.47 14.74Q32.87 14.74 32.52 14.39Q32.17 14.04 32.17 13.44L32.17 13.44L32.17 6.20Q32.33 6.17 32.66 6.13Q33.00 6.08 33.31 6.08L33.31 6.08Q33.63 6.08 33.87 6.13Q34.12 6.17 34.29 6.30Q34.45 6.43 34.54 6.65Q34.62 6.87 34.62 7.24L34.62 7.24L34.62 12.77L37.83 12.77Q37.93 12.92 38.01 13.18Q38.09 13.44 38.09 13.72L38.09 13.72Q38.09 14.28 37.86 14.51Q37.62 14.74 37.23 14.74L37.23 14.74ZM39.12 6.01L39.12 6.01Q39.12 5.47 39.47 5.11Q39.83 4.75 40.42 4.75L40.42 4.75Q41.01 4.75 41.36 5.11Q41.72 5.47 41.72 6.01L41.72 6.01Q41.72 6.54 41.36 6.90Q41.01 7.27 40.42 7.27L40.42 7.27Q39.83 7.27 39.47 6.90Q39.12 6.54 39.12 6.01ZM41.61 8.99L41.61 14.69Q41.45 14.71 41.15 14.76Q40.85 14.81 40.54 14.81L40.54 14.81Q40.24 14.81 39.99 14.77Q39.75 14.73 39.58 14.60Q39.41 14.48 39.32 14.26Q39.23 14.04 39.23 13.69L39.23 13.69L39.23 7.99Q39.38 7.97 39.68 7.92Q39.98 7.87 40.29 7.87L40.29 7.87Q40.60 7.87 40.85 7.91Q41.09 7.95 41.26 8.08Q41.43 8.20 41.52 8.42Q41.61 8.64 41.61 8.99L41.61 8.99ZM45.50 10.25L45.50 12.36Q45.50 12.73 45.73 12.88Q45.96 13.03 46.38 13.03L46.38 13.03Q46.59 13.03 46.82 13.00Q47.04 12.96 47.21 12.91L47.21 12.91Q47.33 13.06 47.43 13.25Q47.52 13.44 47.52 13.71L47.52 13.71Q47.52 14.24 47.12 14.57Q46.72 14.91 45.71 14.91L45.71 14.91Q44.48 14.91 43.81 14.35Q43.15 13.79 43.15 12.53L43.15 12.53L43.15 6.54Q43.30 6.50 43.59 6.45Q43.88 6.40 44.20 6.40L44.20 6.40Q44.81 6.40 45.16 6.62Q45.50 6.83 45.50 7.53L45.50 7.53L45.50 8.43L47.33 8.43Q47.42 8.58 47.50 8.81Q47.57 9.04 47.57 9.32L47.57 9.32Q47.57 9.81 47.36 10.03Q47.14 10.25 46.77 10.25L46.77 10.25L45.50 10.25ZM52.32 14.92L52.32 14.92Q51.49 14.92 50.79 14.69Q50.08 14.46 49.55 14.00Q49.03 13.54 48.73 12.84Q48.43 12.14 48.43 11.20L48.43 11.20Q48.43 10.28 48.73 9.61Q49.03 8.95 49.52 8.52Q50.01 8.09 50.64 7.89Q51.27 7.69 51.93 7.69L51.93 7.69Q52.67 7.69 53.28 7.91Q53.89 8.13 54.33 8.53Q54.77 8.92 55.01 9.46Q55.26 10.01 55.26 10.65L55.26 10.65Q55.26 11.13 54.99 11.38Q54.73 11.63 54.25 11.70L54.25 11.70L50.79 12.22Q50.95 12.68 51.42 12.92Q51.90 13.15 52.51 13.15L52.51 13.15Q53.09 13.15 53.60 13.00Q54.11 12.85 54.43 12.66L54.43 12.66Q54.66 12.80 54.81 13.05Q54.96 13.30 54.96 13.58L54.96 13.58Q54.96 14.21 54.38 14.52L54.38 14.52Q53.93 14.76 53.37 14.84Q52.81 14.92 52.32 14.92ZM51.93 9.42L51.93 9.42Q51.59 9.42 51.35 9.53Q51.10 9.65 50.95 9.82Q50.79 10.00 50.72 10.21Q50.64 10.43 50.62 10.65L50.62 10.65L53.02 10.26Q52.98 9.98 52.71 9.70Q52.44 9.42 51.93 9.42Z"></path>
    </g>
</svg>