<svg data-v-423bf9ae="" xmlns="http://www.w3.org/2000/svg" viewBox="0 0 407 107" class="iconLeft">
    <g data-v-423bf9ae="" id="8fae8028-56d7-4c19-a778-c1982b9b41b7" fill="#ffffff" transform="matrix(5.84225874640956,0,0,5.84225874640956,98.92630000606874,-0.917972378637856)">
        <path d="M4.75 14.22L4.75 14.22Q3.81 14.22 2.98 13.86L2.98 13.86Q2.27 14.13 1.45 14.13Q0.63 14.13 0.57 14.11L0.57 14.11Q0.57 13.15 1.34 9.93Q2.11 6.72 2.11 6.28Q2.11 5.84 1.95 5.49Q1.79 5.14 1.62 4.96L1.62 4.96L1.47 4.79L1.51 4.47Q1.92 4.37 3.14 4.24Q4.37 4.12 5.26 4.12L5.26 4.12Q7.42 4.12 8.46 5.01Q9.51 5.89 9.51 7.85L9.51 7.85Q9.51 9.38 8.95 10.82Q8.40 12.25 7.28 13.24Q6.16 14.22 4.75 14.22ZM5.46 5.11L5.46 5.11Q5.21 5.11 4.91 5.15L4.91 5.15Q4.87 5.96 4.20 8.88Q3.53 11.80 3.37 12.88L3.37 12.88Q3.63 13.01 3.98 13.01L3.98 13.01Q4.72 13.01 5.30 12.33Q5.88 11.66 6.19 10.65L6.19 10.65Q6.79 8.61 6.79 6.94L6.79 6.94Q6.79 5.94 6.49 5.52Q6.19 5.11 5.46 5.11ZM12.17 14.22L12.17 14.22Q11.07 14.22 10.44 13.53Q9.81 12.84 9.81 11.58L9.81 11.58Q9.81 10.04 10.72 8.97Q11.63 7.90 13.12 7.90L13.12 7.90L13.75 7.95Q14.08 7.85 14.38 7.85L14.38 7.85Q15.08 7.85 15.38 8.33Q15.68 8.81 15.72 9.69L15.72 9.69Q16.31 9.66 16.84 9.51L16.84 9.51L17.04 9.45Q17.14 9.55 17.18 10.04L17.18 10.04L17.19 10.19Q16.56 10.51 15.65 10.70L15.65 10.70Q15.34 12.18 14.43 13.20Q13.52 14.22 12.17 14.22ZM12.45 11.52L12.45 11.52Q12.45 12.82 13.10 12.82L13.10 12.82Q13.57 12.82 14.05 12.24Q14.53 11.65 14.71 10.81L14.71 10.81Q13.29 10.81 13.29 9.44L13.29 9.44Q13.29 9.20 13.33 8.95L13.33 8.95Q13.19 8.95 13.12 8.99L13.12 8.99Q12.88 9.24 12.66 10.00Q12.45 10.77 12.45 11.52ZM19.73 8.79L19.73 8.79Q19.29 8.79 18.98 9.56Q18.68 10.33 18.68 11.12L18.68 11.12Q18.68 12.84 19.67 12.84L19.67 12.84Q20.30 12.84 21.10 12.24L21.10 12.24L21.55 12.85Q20.96 13.50 20.14 13.86Q19.32 14.22 18.51 14.22L18.51 14.22Q17.42 14.22 16.74 13.56Q16.06 12.89 16.06 11.55L16.06 11.55Q16.06 9.93 17.06 8.89Q18.06 7.85 19.68 7.85L19.68 7.85Q20.73 7.85 21.34 8.28Q21.94 8.71 21.94 9.36Q21.94 10.01 21.55 10.49L21.55 10.49Q21.08 10.49 20.55 10.31Q20.01 10.14 19.68 9.87L19.68 9.87L19.89 8.82Q19.81 8.79 19.73 8.79ZM27.09 12.17L27.09 12.17Q27.09 13.03 26.29 13.63Q25.48 14.22 24.40 14.22Q23.32 14.22 22.63 13.86Q21.94 13.50 21.94 13.17Q21.94 12.84 22.36 12.33Q22.79 11.82 23.24 11.73L23.24 11.73Q23.88 12.08 24.40 13.29L24.40 13.29Q24.81 13.29 24.81 13.02L24.81 13.02Q24.81 12.82 24.70 12.66Q24.58 12.49 24.53 12.39Q24.47 12.29 24.33 12.12Q24.19 11.94 24.12 11.86L24.12 11.86Q23.77 11.44 23.49 11.09L23.49 11.09Q22.82 10.25 22.82 9.61Q22.82 8.97 23.23 8.57L23.23 8.57Q23.93 7.85 25.28 7.85L25.28 7.85Q26.14 7.85 26.64 8.18Q27.15 8.51 27.15 9.16Q27.15 9.81 26.38 10.65L26.38 10.65Q27.09 11.48 27.09 12.17ZM26.15 9.60Q26.32 9.34 26.32 9.13Q26.32 8.92 26.14 8.81Q25.96 8.69 25.70 8.69Q25.45 8.69 25.32 8.81Q25.19 8.93 25.19 9.13Q25.19 9.32 25.79 10.00L25.79 10.00Q25.98 9.86 26.15 9.60ZM35.55 14.39L35.55 14.39Q34.96 14.39 33.83 13.78Q32.70 13.16 32.52 13.12L32.52 13.12Q31.68 14.22 30.95 14.22L30.95 14.22Q30.76 14.22 30.37 13.68Q29.97 13.13 29.97 12.66L29.97 12.66Q29.97 12.45 30.41 12.13Q30.84 11.82 31.40 11.69L31.40 11.69Q31.78 10.81 32.15 9.02Q32.52 7.22 32.52 5.87L32.52 5.87Q32.52 5.64 32.38 5.36Q32.23 5.08 32.09 4.91L32.09 4.91L31.93 4.75L31.98 4.47Q32.75 4.12 35.17 4.12L35.17 4.12Q35.39 4.47 35.39 5.31Q35.39 6.15 34.65 8.22Q33.91 10.29 33.17 11.82L33.17 11.82Q34.57 12.18 35.84 12.18L35.84 12.18Q36.13 12.18 36.32 12.04Q36.51 11.90 36.74 11.45L36.74 11.45L37.51 11.72Q37.28 13.05 36.83 13.72Q36.37 14.39 35.55 14.39ZM41.23 8.80Q41.23 9.42 40.88 10.72Q40.53 12.01 40.53 12.40Q40.53 12.80 40.68 12.80Q40.84 12.80 41.24 12.66L41.24 12.66L41.37 12.60L41.62 13.30Q41.15 13.66 40.44 13.94Q39.73 14.22 39.16 14.22Q38.58 14.22 38.25 13.90Q37.93 13.58 37.93 12.97Q37.93 12.36 38.27 11.11Q38.61 9.86 38.61 9.52L38.61 9.52Q38.61 9.00 38.25 8.54L38.25 8.54L38.14 8.39L38.18 8.15Q38.91 7.92 41.01 7.92L41.01 7.92Q41.23 8.18 41.23 8.80ZM40.19 6.83Q39.55 6.83 39.19 6.50Q38.84 6.16 38.84 5.64Q38.84 5.11 39.28 4.75Q39.72 4.40 40.35 4.40Q40.98 4.40 41.33 4.69Q41.68 4.98 41.68 5.52Q41.68 6.05 41.25 6.44Q40.82 6.83 40.19 6.83ZM46.87 9.10L46.87 9.10L45.67 9.00Q45.11 11.51 45.06 11.91Q45.01 12.32 45.01 12.58Q45.01 12.84 45.18 12.84L45.18 12.84Q45.37 12.84 45.92 12.59L45.92 12.59L46.26 13.26Q45.81 13.66 45.12 13.94Q44.44 14.22 43.80 14.22Q43.16 14.22 42.78 13.90Q42.41 13.57 42.41 12.96Q42.41 12.36 42.76 11.03Q43.11 9.70 43.22 9.06L43.22 9.06Q42.88 9.09 42.22 9.16L42.22 9.16Q42.17 8.86 42.17 8.60Q42.17 8.34 42.24 8.02L42.24 8.02L43.36 8.02Q43.37 7.84 43.37 6.80L43.37 6.80L43.34 6.23Q44.70 5.78 45.93 5.78L45.93 5.78Q46.03 6.01 46.03 6.56Q46.03 7.11 45.85 8.02L45.85 8.02L47.11 8.02Q47.11 8.60 46.87 9.10ZM46.68 11.52L46.68 11.52Q46.68 9.79 47.73 8.82Q48.79 7.85 50.34 7.85L50.34 7.85Q51.42 7.85 52.07 8.32Q52.72 8.79 52.72 9.58L52.72 9.58Q52.72 10.15 52.37 10.60Q52.02 11.05 51.52 11.28L51.52 11.28Q50.46 11.76 49.67 11.86L49.67 11.86L49.32 11.90Q49.48 12.82 50.25 12.82L50.25 12.82Q50.58 12.82 50.99 12.68Q51.39 12.53 51.63 12.38L51.63 12.38L51.87 12.24L52.32 12.84Q52.32 12.84 52.16 12.99L52.16 12.99Q52.08 13.08 51.77 13.32Q51.45 13.57 51.11 13.75Q50.76 13.93 50.23 14.08Q49.70 14.22 49.17 14.22L49.17 14.22Q47.98 14.22 47.33 13.53Q46.68 12.84 46.68 11.52ZM49.27 10.98Q49.67 10.92 50.08 10.31Q50.48 9.70 50.48 9.29Q50.48 8.88 50.25 8.88L50.25 8.88Q49.90 8.88 49.60 9.42Q49.31 9.97 49.27 10.98L49.27 10.98Z"></path>
    </g>
    <defs data-v-423bf9ae="">
        <linearGradient data-v-423bf9ae="" gradientTransform="rotate(25)" id="cfa31c8c-4a20-4e40-a21b-70dd3a9c01bb" x1="0%" y1="0%" x2="100%" y2="0%">
            <stop data-v-423bf9ae="" offset="0%" style="stop-color: rgb(0, 21, 214); stop-opacity: 1;"></stop>
            <stop data-v-423bf9ae="" offset="100%" style="stop-color: rgb(9, 137, 251); stop-opacity: 1;"></stop>
        </linearGradient>
    </defs>
    <g data-v-423bf9ae="" id="6f8460ed-4f5a-4a2f-90ed-7786d3090341" transform="matrix(1.0868111504448785,0,0,1.0868111504448785,-13.255261890115804,-0.23894260335429607)" stroke="none" fill="url(#cfa31c8c-4a20-4e40-a21b-70dd3a9c01bb)"><g clip-rule="evenodd">
    <path d="M12.983 10.59l17.018 88.223-5.872-59.049 29.021-1.892-.054-9.883L64.549 1 53.622 18.977z"></path><path d="M59.389 54.548l5.16-53.541-8.74 39.716-19.612 1.045 1.57 20.462-7.766 36.583 12.057-39.899z"></path><path d="M62.8 67.182l.549-10.453-15.979 3.755-.032 11.797-17.337 26.532 21.68-27.616zM65.711 62.394l14.841-4.731 1.509-12.532-15.899 2.095zM72.07 44.502l10.988-1.417 1.581-10.278-8.079-.373L64.549 1l8.43 30.967z"></path><path d="M87.413 31.294l1.256-9.506-9.544-2.694L64.549 1l14.483 22.437-.422 7z"></path></g></g>
</svg>